<svg width="8800" height="1400" xmlns="http://www.w3.org/2000/svg"><defs><path d="M0 0z" id="svg_1"/><path d="M0 0z" id="svg_2"/><style>@font-face{font-family:&quot;方正大黑简体&quot;;font-variant:normal;font-weight:400;src:url(#FontID1) format(svg)}@font-face{font-family:&quot;方正兰亭中粗黑_GBK&quot;;font-variant:normal;font-style:normal;font-weight:400;src:url(#FontID0) format(svg)}.fil2{fill:#332c2b}.fil1{fill:#009fe8}</style></defs><path id="canvas_background" fill="none" d="M-1-1h176007.813v28002.925H-1z"/><g id="图层_x0020_1"><g id="_2484031155664"><path d="M1089.872 566.94c94.58 47.28 97.13 202.56 82.64 265.34-46.33 209.28-538.76 420.87-862.8 356.15-240.78-70.03-203.06-277.78-140.49-368.3 65.68-99.09 129.24-146.44 158.69-179.7-436.81 121.76-562.44 913.19 421.65 733.93 808.03-188.71 691.75-850.19 340.31-807.42z" id="svg_3" style="fill:#009fe8"/><path class="fil1" d="M526.612 554.39c194.73-102.96 102.5-130.52 499.42-232.86 181.13-46.71 372.77-183.45 397.05-321.53-333.15 30.9-870.22 300.89-896.47 554.39z" id="svg_4"/><path class="fil1" d="m356.722 856.25 122.39 98.48s61-232.65 112.89-276.06c51.88-43.41 135.4-64.58 160.71-63.24 0 0 231.17-24.57 251.52-21.8 0 0 285.54-22.07 314.85-213.41 0 0-419.55 8.92-591.08 79.01 0 0-203.27 58.27-273.39 187.63 0 0-60.98 74.9-97.89 209.39z" id="svg_5" style="stroke:#009fe8;stroke-width:20;stroke-miterlimit:22.9256"/></g><text x="1683.082" y="825.92" class="fil2" id="svg_6" style="font-weight:400;font-size:588.53px;font-family:'方正兰亭中粗黑_GBK'">四川飞欧装饰工程有限公司</text><text x="1692.262" y="1243.62" class="fil2" id="svg_7" style="font-weight:400;font-size:306.15px;font-family:'方正大黑简体'">SiChuan FeiOu Decoration Engineering Co.,Ltd</text></g></svg>