<svg fill="none" height="201" viewBox="0 0 512 201" width="512" xmlns="http://www.w3.org/2000/svg"><g fill="#fff"><path d="m6.03516 78.0469v-34.8047h40.78124v-6.0352h-40.78124v-31.17184h50.39064v-6.03516h-56.4258v84.0234h57.5977v-5.9765z"/><path d="m112.793 26.4258h-6.563l-16.8159 23.3789-16.8164-23.3789h-6.6211l19.8046 27.5976-21.5624 30h6.5624l18.6329-25.7812 18.5739 25.7812h6.621l-21.6207-30z"/><path d="m122.988 55.1953c0 8.3203 2.754 15.4102 8.379 21.2695 5.567 5.8594 12.188 8.7305 19.805 8.7305 2.812 0 5.508-.4101 8.144-1.2891 2.637-.8789 4.746-1.8164 6.387-2.871 1.582-1.0547 3.106-2.2266 4.57-3.5743 1.407-1.3476 2.344-2.2851 2.754-2.8711.411-.5859.762-.996.996-1.3476l-4.218-3.6328-1.817 2.5195c-1.289 1.6992-3.515 3.3984-6.562 5.0977-3.106 1.7578-6.504 2.5781-10.254 2.5781-6.094 0-11.367-2.3438-15.938-7.1485-4.57-4.8046-6.855-10.6054-6.855-17.4023s2.226-12.5977 6.797-17.4023c4.57-4.8047 9.902-7.2071 15.996-7.2071 2.344 0 4.57.4102 6.738 1.1133 2.11.7031 3.867 1.5234 5.215 2.461 1.289.9374 2.52 1.9335 3.691 3.1054 1.172 1.1719 1.875 1.9922 2.227 2.461.352.4687.586.8789.762 1.1132l4.218-3.6328-.996-1.1718c-.586-.9376-1.523-1.9336-2.812-3.1055-1.348-1.1719-2.871-2.2852-4.512-3.4571-1.699-1.1718-3.867-2.2265-6.445-3.0468s-5.274-1.2305-8.086-1.2305c-7.617 0-14.18 2.8711-19.805 8.7305s-8.379 12.8906-8.379 21.2109z"/><path d="m189.551 84.0234h5.39v-57.5976h-5.39zm-1.172-77.98824c0 1.23046.351 2.22656 1.172 2.98828.82.82031 1.816 1.17186 2.988 1.17186s2.168-.35155 2.988-1.17186c.821-.76172 1.231-1.75782 1.231-2.98828 0-1.17188-.41-2.16797-1.231-2.98828-.82-.82032-1.816-1.23047-2.988-1.23047s-2.168.41015-2.988 1.23047c-.821.82031-1.172 1.8164-1.172 2.98828z"/><path d="m221.309 21.6211c0 1.4648-.411 2.6367-1.231 3.5156s-1.816 1.2891-3.047 1.2891h-7.793v5.3906h11.426v37.793c0 5.039 1.289 8.9062 3.809 11.6015 2.519 2.6953 6.035 3.9844 10.605 3.9844 2.813.0586 5.449-.5273 7.793-1.7578v-5.3906l-1.113.4687c-.586.3516-1.524.6446-2.813.8789-1.289.293-2.578.4102-3.867.4102-2.695 0-4.922-.8789-6.562-2.6367-1.641-1.7578-2.461-4.2774-2.461-7.5586v-37.793h13.183v-5.3906h-13.183v-19.21877h-4.805z"/><path d="m258.457 84.0234h5.391v-57.5976h-5.391zm-1.172-77.98824c0 1.23046.352 2.22656 1.172 2.98828.82.82031 1.816 1.17186 2.988 1.17186s2.168-.35155 2.989-1.17186c.82-.76172 1.23-1.75782 1.23-2.98828 0-1.17188-.41-2.16797-1.23-2.98828-.821-.82032-1.817-1.23047-2.989-1.23047s-2.168.41015-2.988 1.23047c-.82.82031-1.172 1.8164-1.172 2.98828z"/><path d="m290.801 26.4258h-5.391v57.5976h5.391v-32.4023c0-5.918 1.933-10.8984 5.801-14.9414 3.867-3.9844 8.554-6.0352 14.003-6.0352 5.098 0 9.375 1.8164 12.833 5.3907 3.398 3.6328 5.156 8.2031 5.156 13.7695v34.2187h5.449v-34.2187c0-7.0899-2.285-12.9492-6.738-17.6367-4.512-4.6289-10.078-6.9727-16.7-6.9727-2.695 0-5.273.4688-7.617 1.2891-2.343.8203-4.218 1.7578-5.566 2.7539-1.406 1.0547-2.637 2.1679-3.809 3.457s-1.875 2.168-2.168 2.6953c-.293.5274-.527.9375-.644 1.2305z"/><path d="m355.02 54.0234c0-6.4453 2.109-11.9531 6.386-16.5234 4.219-4.5703 9.141-6.8555 14.649-6.8555 5.566 0 10.547 2.3438 14.941 6.9141 4.395 4.5703 6.621 10.0781 6.621 16.4648 0 6.4454-2.226 11.9532-6.621 16.5235-4.394 4.5703-9.375 6.8554-14.941 6.8554-5.567 0-10.489-2.2265-14.707-6.7968-4.219-4.5703-6.328-10.0782-6.328-16.5821zm42.597 26.4258c0 6.5625-2.226 12.1289-6.562 16.6406-4.336 4.5122-9.551 6.7382-15.645 6.7382-2.344 0-4.629-.351-6.855-1.055-2.227-.703-4.043-1.523-5.391-2.461-1.348-.937-2.637-1.9331-3.809-3.105-1.23-1.1718-1.992-1.9922-2.343-2.4609-.352-.4688-.645-.8789-.762-1.1133l-3.633 3.5742.879 1.2305c.527.8789 1.465 1.8745 2.754 3.0465s2.754 2.344 4.453 3.516c1.641 1.172 3.809 2.168 6.445 2.988 2.579.821 5.332 1.231 8.262 1.231 7.617 0 14.121-2.754 19.512-8.379 5.39-5.5666 8.144-12.3634 8.144-20.3908v-54.0234h-5.449v10.7812l-.82-1.1718c-.469-.879-1.348-1.875-2.52-3.0469-1.23-1.1719-2.636-2.3438-4.16-3.5156-1.582-1.1719-3.633-2.168-6.094-2.9883-2.519-.8203-5.156-1.2891-7.968-1.2891-7.09 0-13.243 2.8125-18.516 8.4375s-7.91 12.4219-7.91 20.3906c0 8.0274 2.637 14.8243 7.91 20.4493s11.484 8.3789 18.516 8.3789c2.754 0 5.39-.4102 7.91-1.3477 2.519-.8789 4.57-1.8164 6.094-2.8711 1.523-1.0547 2.929-2.2266 4.277-3.5742 1.289-1.3477 2.168-2.2852 2.519-2.8711.352-.5859.586-.9961.762-1.3477z"/><path d="m118.212 116.109h-1.231l-25.7808 80.45-25.8398-80.45h-2.4024l27.0117 84.024h2.4024l25.1949-78.574 25.196 78.574h2.402l27.012-84.024h-2.403l-25.781 80.45z"/><path d="m187.177 200.133h2.402v-57.598h-2.402zm3.574-79.16c0-.645-.293-1.231-.82-1.7-.528-.468-1.055-.761-1.582-.761-.586 0-1.114.293-1.641.761-.527.469-.762 1.055-.762 1.7 0 .644.235 1.172.762 1.64.527.469 1.055.703 1.641.703.527 0 1.054-.234 1.582-.703.527-.468.82-.996.82-1.64z"/><path d="m217.118 138.961c0 2.402-1.23 3.574-3.574 3.574h-8.438v2.403h12.012v42.011c0 4.453 1.172 7.969 3.633 10.547s5.625 3.809 9.551 3.809c2.812.058 5.215-.528 7.207-1.758v-2.402l-.821.351c-.585.352-1.523.645-2.695.996-1.172.352-2.402.469-3.691.469-3.399 0-6.035-.996-7.91-3.106-1.934-2.109-2.871-5.039-2.871-8.906v-42.011h13.183v-2.403h-13.183v-19.219h-2.403z"/><path d="m255.556 116.109h-2.403v84.024h2.403v-32.988c0-6.797 2.05-12.364 6.211-16.817 4.101-4.394 9.257-6.621 15.351-6.621 5.742 0 10.606 2.109 14.531 6.27 3.868 4.16 5.86 9.492 5.86 15.937v34.219h2.402v-34.219c0-7.09-2.226-12.949-6.621-17.578-4.394-4.688-9.785-6.973-16.172-6.973-3.164 0-6.035.528-8.73 1.699-2.696 1.114-4.746 2.344-6.153 3.692-1.464 1.348-2.754 2.93-3.925 4.746-1.172 1.816-1.875 3.105-2.168 3.809-.235.703-.469 1.289-.645 1.699z"/><path d="m327.521 116.109h-3.047l31.23 54.61v29.414h2.402v-29.414l31.172-54.61h-2.988l-29.414 52.207z"/><path d="m442.657 171.363c0 7.676-2.519 14.18-7.558 19.571-5.039 5.39-10.957 8.027-17.637 8.027-6.738 0-12.598-2.637-17.637-8.027-5.039-5.391-7.558-11.895-7.558-19.571 0-7.675 2.519-14.179 7.558-19.57s10.899-8.086 17.637-8.086c6.68 0 12.598 2.695 17.637 8.086s7.558 11.895 7.558 19.57zm2.403 0c0-8.203-2.813-15.293-8.321-21.211-5.508-5.859-11.953-8.847-19.336-8.847-7.382 0-13.769 2.988-19.277 8.847-5.508 5.918-8.262 13.008-8.262 21.211s2.754 15.293 8.262 21.153c5.508 5.859 11.895 8.789 19.277 8.789 7.383 0 13.828-2.93 19.336-8.789 5.508-5.86 8.321-12.95 8.321-21.153z"/><path d="m508.634 200.133h2.402v-57.598h-2.402v32.988c0 6.797-2.11 12.422-6.211 16.817-4.16 4.453-9.258 6.621-15.352 6.621-5.8 0-10.664-2.051-14.59-6.211-3.867-4.16-5.859-9.492-5.859-15.996v-34.219h-2.402v34.219c0 7.148 2.226 13.008 6.621 17.637 4.394 4.629 9.785 6.914 16.172 6.914 3.164 0 6.035-.528 8.73-1.641s4.746-2.344 6.153-3.691c1.406-1.348 2.695-2.93 3.867-4.746 1.172-1.817 1.933-3.106 2.168-3.809.293-.703.527-1.289.703-1.699z"/></g></svg>